<?xml version="1.0" encoding="UTF-8"?>
<svg id="Layer_2" data-name="Layer 2" xmlns="http://www.w3.org/2000/svg" viewBox="0 0 241.34 322.71">
  <g id="Layer_1-2" data-name="Layer 1">
    <g>
      <g id="JY5NkK.tif">
        <path d="m159.39,199.99c.64-1.62.89-2.61,1.41-3.42.3-.47,1.04-.95,1.58-.95,24.85-.03,49.7,0,74.55,0,.07,0,.14.04.21.06-.35,3.2-.72,3.44-3.83,3.66-3.48.25-7,.47-10.4,1.16-5.85,1.19-10.67,4.43-13.74,9.47-4,6.56-7.78,13.31-10.97,20.29-13.62,29.84-26.99,59.79-40.44,89.71-1.38,3.06-1.4,3.08-5.14,2.34,3.09-10.45,6.18-20.89,9.39-31.71-1.51.52-2.72.98-3.96,1.37-12.62,4.04-25.58,6.42-38.69,8.08-11.42,1.44-22.9,2.09-34.41,1.43-11.69-.67-23.09-2.62-33.62-8.21-8.31-4.41-14.64-10.78-19.37-18.85-7-11.93-8.9-25-8.69-38.54.33-20.99,6.58-40.41,15.77-59.04,9.47-19.21,21.88-36.27,37.43-51,15.08-14.29,31.9-25.93,51.68-32.78,15.45-5.35,31.36-6.97,47.68-5.76,15.37,1.14,28.16,8.18,40.51,16.52,2.18,1.47,4.4,2.93,6.75,4.1,2.74,1.37,4.42,1.05,6.17-1.41,1.67-2.36,3.12-4.96,4.2-7.64,1.57-3.89,2.73-7.94,4.08-11.96h3.81c-.35,1.37-.65,2.6-.98,3.82-7.07,26.33-14.14,52.67-21.22,79q-.93,3.44-4.79,3.03c.72-3.32,1.51-6.61,2.15-9.92,1.71-8.78,2.73-17.62,2-26.59-1.57-19.38-11.1-32.55-29.98-38.81-12.25-4.06-24.86-4.2-37.48-2.33-20.54,3.05-38.25,12.29-54.31,25.14-26.64,21.32-45.7,48.08-57.41,80.05-5.87,16.02-7.94,32.54-5.12,49.49,1.75,10.53,5.5,20.22,12.64,28.36,4.38,4.99,9.85,8.43,16,10.78,11.79,4.49,24.1,5.73,36.59,5.6,18.2-.19,36.18-2.12,53.69-7.32,3.69-1.09,7.32-2.4,10.94-3.72.63-.23,1.24-.94,1.53-1.57,9.47-20.84,18.93-41.69,28.31-62.57,1.07-2.39,1.83-4.96,2.42-7.52,1.22-5.23-.57-8.61-5.81-9.88-4.47-1.08-9.12-1.62-13.73-1.88-5.61-.31-11.25-.07-17.38-.07Z"/>
      </g>
      <path d="m61.85,81.59c3.33-14.63,1.78-14.63,10.64-14.63l59.27,4.42.59-4.42s-32.47-5.29-49.88-5.32c-17.01-.03-12.64-4.66-3.99-17.29L102.42,6.44l-2.66-2.66s-4.66,3.99-23.94,34.58c-10.64,15.96-11.79,15.07-11.79,15.07L40.3,0l-2.39,3.78s2.66,5.99,13.3,34.58c9.31,19.95,5.32,18.62,2,19.29,0,0-1.33,0-31.92,3.99l-21.28,3.33s0,2,4.66,3.33c17.02-2.63,26.48-2.36,34.97-3.3,24.22-2.69,17.58,4.68,17.57,11.95l-8.65,51.21h4.66s8.65-46.55,8.65-46.55Z"/>
    </g>
  </g>
</svg>