<?xml version="1.0" encoding="UTF-8"?>
<svg id="Layer_2" data-name="Layer 2" xmlns="http://www.w3.org/2000/svg" viewBox="0 0 387.48 128.26">
  <g id="Layer_1-2" data-name="Layer 1">
    <g>
      <g>
        <path d="m92.62,36.77l-.2.59c-.16.46-.3.93-.45,1.39-.35,1.08-.68,2.11-1.08,3.12-.38.93-.9,1.88-1.5,2.73-.38.54-.53.62-1.25.26-.87-.43-1.7-.98-2.47-1.5-4.55-3.07-9.61-5.97-15.84-6.43-6.67-.49-12.72.24-18.5,2.24-7.01,2.43-13.55,6.57-19.98,12.67-5.9,5.59-10.75,12.2-14.43,19.66-3.99,8.08-5.98,15.55-6.09,22.85-.1,6.17.99,10.97,3.43,15.12,1.92,3.28,4.52,5.8,7.72,7.5,3.6,1.91,7.66,2.91,13.15,3.23,4.11.24,8.44.06,13.26-.55,5.79-.73,10.5-1.71,14.81-3.09l-3.36,11.36.93.18c.49.1.88.16,1.2.16.8,0,1.19-.38,1.72-1.55,1.35-2.99,2.69-5.98,4.03-8.98,3.71-8.26,7.54-16.79,11.36-25.17,1.07-2.34,2.38-4.77,4.13-7.63,1.03-1.68,2.64-2.79,4.66-3.2,1.15-.23,2.38-.32,3.57-.41l.28-.02c1.62-.12,2.08-.56,2.26-2.16l.12-.72-.71-.2-.2-.07h-2.34c-8.73,0-17.46-.02-26.2,0-.56,0-1.09.39-1.33.76-.18.29-.29.59-.42.93-.05.15-.12.32-.19.52l-.47,1.19h1.28c.72,0,1.42,0,2.11-.02,1.54-.02,3.01-.04,4.46.04,1.93.11,3.59.33,5.07.69,1.48.36,1.94,1.15,1.57,2.72-.26,1.09-.53,1.95-.87,2.7-3.64,8.12-7.33,16.24-10.77,23.81-.03.06-.09.14-.09.14-1.38.5-2.73.99-4.11,1.4-5.98,1.77-12.58,2.67-20.2,2.75-5.43.06-9.75-.6-13.61-2.07-2.38-.91-4.26-2.17-5.75-3.86-2.4-2.73-3.9-6.12-4.61-10.36-1-6.02-.36-12.21,1.91-18.4,4.41-12.03,11.67-22.16,21.58-30.09,6.59-5.27,13.21-8.34,20.26-9.39,5.25-.78,9.79-.5,13.87.85,6.7,2.22,10.24,6.81,10.82,14.02.24,2.91,0,6.05-.75,9.89-.17.86-.36,1.71-.55,2.56-.09.4-.18.8-.27,1.2l-.2.95.96.1c1.88.21,2.29-.07,2.75-1.79l8.08-30.07c.08-.31.16-.61.24-.94l.41-1.61h-3.2Z"/>
        <path d="m28.29,24.83c-.18-.43,14.29-18.75,14.29-18.75l-1.9-2.23s-14.08,18.03-14.71,18.66L18.37,0l-2.27,3.03.15.44s3.93,13.25,3.93,13.25c1.16,3.47,1.83,6.67,1.74,6.95-.09.02-21.87.79-21.87.79l-.06.74c1.08,1.94,3.4,1.94,3.4,1.94,4.26-.32,18.53.13,18.53.58,0,1.74-4.05,23.74-4.05,23.74l1.95.29s6.46-23.23,6.74-23.45c.21-.17,22.58,3.47,22.58,3.47v-2.32s-20.82-4.58-20.85-4.63Z"/>
      </g>
      <g>
        <path d="m143.68,61.41h14.53v15.16h-4.54l-.67-3.29c-2.43,2.48-5.9,3.87-9.63,3.87-8.68,0-15.88-6.34-15.88-15.7s7.16-15.79,15.97-15.79c6.43,0,12.64,3.51,14.44,9.63l-5.89,2.38c-1.17-4-4.37-6.17-8.5-6.17-5.49,0-9.45,4.05-9.45,9.9s3.92,10.08,9.72,10.08c3.55,0,6.61-1.75,8.19-4.9h-8.28v-5.17Z"/>
        <path d="m192.79,76.57h-7.47l-7.92-11.83h-6.39v11.83h-6.25v-30.37h15.66c6.75,0,10.66,3.83,10.66,9.18,0,4.14-2.65,7.51-6.93,8.77l8.64,12.42Zm-21.78-24.61v7.16h9.45c2.7,0,4.27-1.44,4.27-3.6s-1.48-3.55-4.23-3.55h-9.5Z"/>
        <path d="m218.45,76.57l-2.43-6.84h-11.7l-2.43,6.84h-6.39l11.38-30.37h6.57l11.47,30.37h-6.48Zm-12.19-12.28h7.83l-3.92-11.02-3.91,11.02Z"/>
        <path d="m249.81,46.2v5.9h-10.35v24.48h-6.25v-24.48h-10.35v-5.9h26.95Z"/>
        <path d="m253.93,76.57v-30.37h6.3v30.37h-6.3Z"/>
        <path d="m291.23,46.2v5.9h-10.35v24.48h-6.25v-24.48h-10.35v-5.9h26.95Z"/>
        <path d="m295.05,64.69v-18.49h6.21v18c0,4.63,2.88,7.15,7.25,7.15s7.24-2.52,7.24-7.15v-18h6.21v18.49c0,6.93-5,12.42-13.45,12.42s-13.46-5.49-13.46-12.42Z"/>
        <path d="m341.59,46.2c9.45,0,16.2,5.8,16.2,14.89s-6.75,15.48-16.2,15.48h-12.83v-30.37h12.83Zm0,24.52c5.49,0,9.63-3.69,9.63-9.63s-4.14-9.04-9.63-9.04h-6.57v18.67h6.57Z"/>
        <path d="m369.48,70.76h18v5.8h-24.25v-30.37h23.35v5.8h-17.1v6.12h11.43v5.76h-11.43v6.88Z"/>
      </g>
      <g>
        <path d="m158.41,124.22h-7.47l-7.92-11.83h-6.39v11.83h-6.25v-30.37h15.66c6.75,0,10.66,3.83,10.66,9.18,0,4.14-2.65,7.51-6.93,8.77l8.64,12.42Zm-21.78-24.61v7.16h9.45c2.7,0,4.27-1.44,4.27-3.6s-1.48-3.55-4.23-3.55h-9.5Z"/>
        <path d="m184.07,124.22l-2.43-6.84h-11.7l-2.43,6.84h-6.39l11.38-30.37h6.57l11.47,30.37h-6.48Zm-12.19-12.28h7.83l-3.92-11.02-3.91,11.02Z"/>
        <path d="m195.14,124.22v-30.37h6.3v30.37h-6.3Z"/>
        <path d="m209.54,124.22v-30.37h6.25v24.48h14.82v5.89h-21.07Z"/>
        <path d="m263.58,124.22h-7.47l-7.92-11.83h-6.39v11.83h-6.25v-30.37h15.66c6.75,0,10.66,3.83,10.66,9.18,0,4.14-2.65,7.51-6.93,8.77l8.64,12.42Zm-21.78-24.61v7.16h9.45c2.7,0,4.27-1.44,4.27-3.6s-1.48-3.55-4.23-3.55h-9.5Z"/>
        <path d="m267.01,109.1c0-9.41,7.25-15.79,16.11-15.79s16.15,6.39,16.15,15.79-7.24,15.7-16.15,15.7-16.11-6.34-16.11-15.7Zm25.69-.04c0-5.85-4.05-9.85-9.58-9.85s-9.54,4-9.54,9.85,4.05,9.85,9.54,9.85,9.58-3.92,9.58-9.85Z"/>
        <path d="m323.45,124.22l-2.43-6.84h-11.7l-2.43,6.84h-6.39l11.38-30.37h6.57l11.47,30.37h-6.48Zm-12.19-12.28h7.83l-3.92-11.02-3.91,11.02Z"/>
        <path d="m347.53,93.85c9.45,0,16.2,5.8,16.2,14.89s-6.75,15.48-16.2,15.48h-12.83v-30.37h12.83Zm0,24.52c5.49,0,9.63-3.69,9.63-9.63s-4.14-9.04-9.63-9.04h-6.57v18.67h6.57Z"/>
      </g>
    </g>
  </g>
</svg>