<?xml version="1.0" encoding="utf-8"?>
<!-- Generator: Adobe Illustrator 27.4.0, SVG Export Plug-In . SVG Version: 6.00 Build 0)  -->
<svg version="1.1" id="Layer_1" xmlns="http://www.w3.org/2000/svg" xmlns:xlink="http://www.w3.org/1999/xlink" x="0px" y="0px"
	 viewBox="0 0 79.1 80" style="enable-background:new 0 0 79.1 80;" xml:space="preserve">
<style type="text/css">
	.st0{fill:#FFFFFF;}
</style>
<g>
	<path class="st0" d="M50.3,56.4c-3.2,2-6.9,3-10.8,2.9C29.5,59,21.3,50.8,21,40.8c-0.4-10.9,8.4-19.9,19.2-19.9
		c5,0,9.6,1.9,13.2,5.3c0.2,0.2,0.4,0.2,0.6,0l1.1-1.2c0.2-0.2,0.2-0.4,0-0.6c-4.3-4.1-9.9-6.2-15.9-6C27.7,19,18.5,28.6,18.5,40.1
		c0,11.9,9.7,21.6,21.6,21.6c4.3,0,8.3-1.2,11.8-3.5c0.2-0.1,0.2-0.4,0.1-0.6l-1.2-1.2C50.7,56.3,50.5,56.3,50.3,56.4z"/>
	<g>
		<path class="st0" d="M17.6,56.5c-3.7-5.1-5.8-11.4-5.3-18.3c0.9-13.9,12-25.1,25.9-26.1c8-0.6,15.6,2.2,21.3,7.6
			c0.2,0.2,0.4,0.2,0.6,0l1.1-1.2c0.2-0.2,0.2-0.4,0-0.6c-6-5.7-13.8-8.7-22.1-8.4C22.8,10.3,9.8,23.8,9.8,40c0,6.8,2.2,13.1,6,18.1
			c0.1,0.2,0.4,0.2,0.6,0l1.2-1.2C17.7,56.9,17.7,56.7,17.6,56.5z"/>
		<path class="st0" d="M66.2,51.1c-0.2-0.1-0.4,0-0.5,0.2C61.2,61.4,51.2,68,40.1,68c-6,0-11.6-1.9-16.2-5.2c-0.2-0.1-0.4-0.1-0.5,0
			L22.2,64c-0.2,0.2-0.2,0.5,0,0.6c5,3.7,11.2,5.8,17.9,5.8c12.1,0,23-7.1,27.8-18.2c0.1-0.2,0-0.5-0.2-0.5L66.2,51.1z"/>
	</g>
	<path class="st0" d="M73.7,46.5c1.4,0.8,2.7,2,4.2,1.8c0.1,0,0.2-0.1,0.2-0.2c0.1-1.5,0-3.8-0.1-5.5v-0.1c-0.6-4.7-3.1-8.4-7-10.4
		c-4.1-2-9.3-1.8-13.5,0.5l-1,0.5c-4.8,2.6-9.3,5-16.4,5.7l-1,0.1c-0.3,0-0.4,0.3-0.3,0.5L39,40c1.3,3.8,3.9,7,7.4,8.9
		c4,2.2,8.7,2.6,13,1.1l10.2-3.6C69.6,46.4,72.1,45.5,73.7,46.5z M58.5,47.8c-3.4,1.2-7.1,1-10.3-0.5c-2.8-1.3-5-3.5-6.3-6.2
		c6.7-0.9,11.1-3.3,15.7-5.8l1-0.5c3.6-2,7.9-2.2,11.3-0.5c3.1,1.6,5.2,4.6,5.7,8.5c0,0.9,0.1,1.7,0.1,2.5c-0.1-0.1-0.3-0.3-0.5-0.4
		c-2.6-2-6.3-0.7-6.5-0.6L58.5,47.8z"/>
	<path class="st0" d="M77.4,51.8"/>
	<g>
		<g>
			<path class="st0" d="M39.5,76.7c-20.1-0.4-36.2-17.1-36-37.1c0.1-8.3,3-16,7.8-22.1c0.1-0.2,0.1-0.4,0-0.5l-1.2-1.2
				c-0.2-0.2-0.5-0.2-0.6,0C4.3,22.3,1.2,30.5,1,39.4C0.7,60.5,17.4,78.2,38.5,79.1c9.6,0.4,18.7-2.7,25.9-8.4
				c0.2-0.2,0.2-0.4,0-0.6l-1.2-1.2c-0.1-0.1-0.4-0.2-0.5,0C56.3,74,48.1,76.8,39.5,76.7z"/>
			<path class="st0" d="M40.1,0.9C31,0.9,22.6,4,15.9,9.3c-0.2,0.2-0.2,0.4,0,0.6l1.2,1.2c0.1,0.1,0.4,0.2,0.5,0
				c6.2-4.9,14-7.8,22.5-7.8c9.7,0,18.8,3.7,25.6,10.5c0.2,0.2,0.4,0.2,0.6,0l1.1-1.1c0.2-0.2,0.2-0.4,0-0.6
				C60.1,4.9,50.4,0.9,40.1,0.9z"/>
		</g>
		<g>
			<path class="st0" d="M49.7,75.4c-19.4,5.3-39.6-6.2-44.9-25.6c-2.2-8-1.6-16.2,1.3-23.4c0.1-0.2,0-0.4-0.2-0.5l-1.4-0.8
				C4.3,25,4,25,3.9,25.3C0.7,33,0,41.7,2.4,50.3C8,70.7,29,83,49.5,78c9.3-2.3,17.2-7.9,22.5-15.3c0.1-0.2,0.1-0.5-0.1-0.6
				l-1.4-0.8c-0.2-0.1-0.4,0-0.5,0.1C65.1,68.1,58.1,73.1,49.7,75.4z"/>
		</g>
		<path class="st0" d="M77,51.8c0.2,0,0.3,0.2,0.3,0.3c-0.6,2.3-1.5,4.2-3.3,7.6l0,0c-0.9,1.6-1.9,3.1-3.1,4.5
			c-0.1,0.2-0.4,0.2-0.6,0L69.1,63c-0.1-0.1-0.2-0.4,0-0.5c2-2.6,3.7-5.4,5-8.5l0,0c0.4-0.9,0.7-1.8,0.9-2.6c0-0.1,0.1-0.2,0.2-0.2
			L77,51.8z"/>
	</g>
</g>
</svg>
