<?xml version="1.0" encoding="utf-8"?>
<!-- Generator: Adobe Illustrator 27.4.0, SVG Export Plug-In . SVG Version: 6.00 Build 0)  -->
<svg version="1.1" id="Layer_1" xmlns="http://www.w3.org/2000/svg" xmlns:xlink="http://www.w3.org/1999/xlink" x="0px" y="0px"
	 viewBox="0 0 250 80" style="enable-background:new 0 0 250 80;" xml:space="preserve">
<g>
	<path d="M51.3,56.4c-3.2,2-6.9,3-10.8,2.9C30.5,59,22.3,50.8,22,40.8c-0.4-10.9,8.4-19.9,19.2-19.9c5,0,9.6,1.9,13.2,5.3
		c0.2,0.2,0.4,0.2,0.6,0l1.1-1.2c0.2-0.2,0.2-0.4,0-0.6c-4.3-4.1-9.9-6.2-15.9-6C28.7,19,19.5,28.6,19.5,40.1
		c0,11.9,9.7,21.6,21.6,21.6c4.3,0,8.3-1.2,11.8-3.5c0.2-0.1,0.2-0.4,0.1-0.6l-1.2-1.2C51.7,56.3,51.5,56.3,51.3,56.4z"/>
	<g>
		<path d="M18.6,56.5c-3.7-5.1-5.8-11.4-5.3-18.3c0.9-13.9,12-25.1,25.9-26.1c8-0.6,15.6,2.2,21.3,7.6c0.2,0.2,0.4,0.2,0.6,0
			l1.1-1.2c0.2-0.2,0.2-0.4,0-0.6c-6-5.7-13.8-8.7-22.1-8.4C23.8,10.3,10.8,23.8,10.8,40c0,6.8,2.2,13.1,6,18.1
			c0.1,0.2,0.4,0.2,0.6,0l1.2-1.2C18.7,56.9,18.7,56.7,18.6,56.5z"/>
		<path d="M67.2,51.1c-0.2-0.1-0.4,0-0.5,0.2C62.2,61.4,52.2,68,41.1,68c-6,0-11.6-1.9-16.2-5.2c-0.2-0.1-0.4-0.1-0.5,0L23.2,64
			c-0.2,0.2-0.2,0.5,0,0.6c5,3.7,11.2,5.8,17.9,5.8c12.1,0,23-7.1,27.8-18.2c0.1-0.2,0-0.5-0.2-0.5L67.2,51.1z"/>
	</g>
	<path d="M74.7,46.5c1.4,0.8,2.7,2,4.2,1.8c0.1,0,0.2-0.1,0.2-0.2c0.1-1.5,0-3.8-0.1-5.5v-0.1c-0.6-4.7-3.1-8.4-7-10.4
		c-4.1-2-9.3-1.8-13.5,0.5l-1,0.5c-4.8,2.6-9.3,5-16.4,5.7l-1,0.1c-0.3,0-0.4,0.3-0.3,0.5L40,40c1.3,3.8,3.9,7,7.4,8.9
		c4,2.2,8.7,2.6,13,1.1l10.2-3.6C70.6,46.4,73.1,45.5,74.7,46.5z M59.5,47.8c-3.4,1.2-7.1,1-10.3-0.5c-2.8-1.3-5-3.5-6.3-6.2
		c6.7-0.9,11.1-3.3,15.7-5.8l1-0.5c3.6-2,7.9-2.2,11.3-0.5c3.1,1.6,5.2,4.6,5.7,8.5c0,0.9,0.1,1.7,0.1,2.5c-0.1-0.1-0.3-0.3-0.5-0.4
		c-2.6-2-6.3-0.7-6.5-0.6L59.5,47.8z"/>
	<path d="M78.4,51.8"/>
	<g>
		<g>
			<path d="M40.5,76.7c-20.1-0.4-36.2-17.1-36-37.1c0.1-8.3,3-16,7.8-22.1c0.1-0.2,0.1-0.4,0-0.5l-1.2-1.2c-0.2-0.2-0.5-0.2-0.6,0
				C5.3,22.3,2.2,30.5,2,39.4C1.7,60.5,18.4,78.2,39.5,79.1c9.6,0.4,18.7-2.7,25.9-8.4c0.2-0.2,0.2-0.4,0-0.6l-1.2-1.2
				c-0.1-0.1-0.4-0.2-0.5,0C57.3,74,49.1,76.8,40.5,76.7z"/>
			<path d="M41.1,0.9C32,0.9,23.6,4,16.9,9.3c-0.2,0.2-0.2,0.4,0,0.6l1.2,1.2c0.1,0.1,0.4,0.2,0.5,0c6.2-4.9,14-7.8,22.5-7.8
				c9.7,0,18.8,3.7,25.6,10.5c0.2,0.2,0.4,0.2,0.6,0l1.1-1.1c0.2-0.2,0.2-0.4,0-0.6C61.1,4.9,51.4,0.9,41.1,0.9z"/>
		</g>
		<g>
			<path d="M50.7,75.4c-19.4,5.3-39.6-6.2-44.9-25.6c-2.2-8-1.6-16.2,1.3-23.4c0.1-0.2,0-0.4-0.2-0.5l-1.4-0.8C5.3,25,5,25,4.9,25.3
				C1.7,33,1,41.7,3.4,50.3C9,70.7,30,83,50.5,78c9.3-2.3,17.2-7.9,22.5-15.3c0.1-0.2,0.1-0.5-0.1-0.6l-1.4-0.8
				c-0.2-0.1-0.4,0-0.5,0.1C66.1,68.1,59.1,73.1,50.7,75.4z"/>
		</g>
		<path d="M78,51.8c0.2,0,0.3,0.2,0.3,0.3c-0.6,2.3-1.5,4.2-3.3,7.6l0,0c-0.9,1.6-1.9,3.1-3.1,4.5c-0.1,0.2-0.4,0.2-0.6,0L70.1,63
			c-0.1-0.1-0.2-0.4,0-0.5c2-2.6,3.7-5.4,5-8.5l0,0c0.4-0.9,0.7-1.8,0.9-2.6c0-0.1,0.1-0.2,0.2-0.2L78,51.8z"/>
	</g>
</g>
<g>
	<g>
		<path d="M110.2,27.2h8.3v8.7h-2.6l-0.4-1.9c-1.4,1.4-3.4,2.2-5.5,2.2c-5,0-9.1-3.6-9.1-9s4.1-9.1,9.2-9.1c3.7,0,7.2,2,8.3,5.5
			l-3.4,1.4c-0.7-2.3-2.5-3.5-4.9-3.5c-3.1,0-5.4,2.3-5.4,5.7s2.2,5.8,5.6,5.8c2,0,3.8-1,4.7-2.8h-4.7L110.2,27.2L110.2,27.2z"/>
		<path d="M138.3,35.9h-4.3l-4.5-6.8h-3.7v6.8h-3.6V18.5h9c3.9,0,6.1,2.2,6.1,5.3c0,2.4-1.5,4.3-4,5L138.3,35.9L138.3,35.9z
			 M125.9,21.8v4.1h5.4c1.5,0,2.4-0.8,2.4-2.1s-0.8-2-2.4-2L125.9,21.8L125.9,21.8z"/>
		<path d="M153.1,35.9l-1.4-3.9H145l-1.4,3.9h-3.7l6.5-17.4h3.8l6.6,17.4L153.1,35.9L153.1,35.9z M146.1,28.9h4.5l-2.2-6.3
			L146.1,28.9z"/>
		<path d="M171,18.5v3.4h-5.9v14h-3.6v-14h-5.9v-3.4H171L171,18.5z"/>
		<path d="M173.4,35.9V18.5h3.6v17.4H173.4L173.4,35.9z"/>
		<path d="M194.8,18.5v3.4h-5.9v14h-3.6v-14h-5.9v-3.4H194.8z"/>
		<path d="M197,29.1V18.5h3.6v10.3c0,2.7,1.7,4.1,4.2,4.1s4.2-1.4,4.2-4.1V18.5h3.6v10.6c0,4-2.9,7.1-7.7,7.1
			C199.9,36.2,197,33.1,197,29.1L197,29.1z"/>
		<path d="M223.7,18.5c5.4,0,9.3,3.3,9.3,8.5s-3.9,8.9-9.3,8.9h-7.4V18.5C216.3,18.5,223.7,18.5,223.7,18.5z M223.7,32.5
			c3.1,0,5.5-2.1,5.5-5.5s-2.4-5.2-5.5-5.2h-3.8v10.7H223.7z"/>
		<path d="M239.7,32.6H250v3.3h-13.9V18.5h13.4v3.3h-9.8v3.5h6.6v3.3h-6.6V32.6L239.7,32.6z"/>
	</g>
	<g>
		<path d="M118.6,63.2h-4.3l-4.5-6.8h-3.7v6.8h-3.6V45.8h9c3.9,0,6.1,2.2,6.1,5.3c0,2.4-1.5,4.3-4,5L118.6,63.2L118.6,63.2z
			 M106.1,49.1v4.1h5.4c1.5,0,2.4-0.8,2.4-2.1c0-1.2-0.8-2-2.4-2L106.1,49.1L106.1,49.1z"/>
		<path d="M133.3,63.2l-1.4-3.9h-6.7l-1.4,3.9h-3.7l6.5-17.4h3.8l6.6,17.4H133.3L133.3,63.2z M126.4,56.2h4.5l-2.2-6.3L126.4,56.2z"
			/>
		<path d="M139.7,63.2V45.8h3.6v17.4H139.7z"/>
		<path d="M148,63.2V45.8h3.6v14h8.5v3.4H148L148,63.2z"/>
		<path d="M178.9,63.2h-4.3l-4.5-6.8h-3.7v6.8h-3.6V45.8h9c3.9,0,6.1,2.2,6.1,5.3c0,2.4-1.5,4.3-4,5L178.9,63.2L178.9,63.2z
			 M166.5,49.1v4.1h5.4c1.5,0,2.4-0.8,2.4-2.1c0-1.2-0.8-2-2.4-2L166.5,49.1L166.5,49.1z"/>
		<path d="M180.9,54.6c0-5.4,4.2-9.1,9.2-9.1s9.3,3.7,9.3,9.1s-4.2,9-9.3,9S180.9,59.9,180.9,54.6z M195.6,54.5
			c0-3.4-2.3-5.6-5.5-5.6c-3.2,0-5.5,2.3-5.5,5.6s2.3,5.6,5.5,5.6S195.6,57.9,195.6,54.5z"/>
		<path d="M213.3,63.2l-1.4-3.9h-6.7l-1.4,3.9h-3.7l6.5-17.4h3.8l6.6,17.4H213.3L213.3,63.2z M206.3,56.2h4.5l-2.2-6.3L206.3,56.2
			L206.3,56.2z"/>
		<path d="M227.1,45.8c5.4,0,9.3,3.3,9.3,8.5s-3.9,8.9-9.3,8.9h-7.4V45.8H227.1z M227.1,59.9c3.1,0,5.5-2.1,5.5-5.5
			s-2.4-5.2-5.5-5.2h-3.8v10.7H227.1z"/>
	</g>
</g>
</svg>
