<svg width="112" height="112" viewBox="0 0 112 112" fill="none" xmlns="http://www.w3.org/2000/svg">
<circle cx="56" cy="56" r="56" fill="#F9F2EB"/>
<path d="M42.1942 61.56C47.9942 61.56 51.9542 58.08 51.9542 53.4C51.9542 49.72 49.3542 46.16 44.3542 46.16C43.4742 46.16 42.5142 46.28 41.4742 46.52L52.0742 34.84V34.28H41.5142C39.2742 34.28 37.0742 34.2 35.0742 33.8L33.9542 42.6H34.5142C35.5142 38.76 37.4342 37.72 41.5942 37.72H47.6342L39.2742 47.16L39.3142 47.8C40.1142 47.64 40.8342 47.6 41.5142 47.6C45.9142 47.6 48.0742 50.44 48.0742 54.08C48.0742 58.04 45.5942 60.44 42.2342 60.44C38.9142 60.44 36.7542 58 36.7542 55.04C36.7542 54.56 36.7942 54.08 36.9142 53.6H33.1542C32.7142 58.68 37.1142 61.56 42.1942 61.56ZM64.4067 61.6C70.5267 61.6 74.7667 55.92 74.7667 47.64C74.7667 39.36 70.5267 33.68 64.4067 33.68C58.2467 33.68 54.0467 39.36 54.0467 47.64C54.0467 55.92 58.2467 61.6 64.4067 61.6ZM57.9267 47.64C57.9267 39.4 60.2867 34.76 64.4067 34.76C68.5267 34.76 70.8467 39.4 70.8467 47.64C70.8467 55.88 68.5267 60.52 64.4067 60.52C60.2867 60.52 57.9267 55.88 57.9267 47.64Z" fill="#FF5C00"/>
<path d="M24.5311 71.958H24.7971L24.9111 69.773C24.2081 69.374 23.1821 69.165 22.2321 69.165C19.7241 69.165 17.8811 71.046 17.8811 73.706C17.8811 76.385 19.6481 78.266 21.9661 78.266C23.8281 78.266 25.0821 77.164 25.4241 75.397L25.2151 75.34C24.7781 76.385 23.8661 77.164 22.6311 77.164C20.8641 77.164 19.5531 75.549 19.5531 73.364C19.5531 71.274 20.6741 69.64 22.2701 69.64C23.4291 69.64 24.3411 70.457 24.5311 71.958ZM29.7554 78.266C32.1874 78.266 33.8214 76.423 33.8214 73.706C33.8214 71.008 32.1874 69.165 29.7554 69.165C27.3234 69.165 25.6704 71.008 25.6704 73.706C25.6704 76.423 27.3234 78.266 29.7554 78.266ZM27.3424 73.706C27.3424 71.122 28.2544 69.64 29.7554 69.64C31.2564 69.64 32.1494 71.122 32.1494 73.706C32.1494 76.309 31.2564 77.791 29.7554 77.791C28.2544 77.791 27.3424 76.309 27.3424 73.706ZM47.6397 76.727V72.053C47.6397 70.153 46.6327 69.165 45.0747 69.165C43.6687 69.165 42.6047 70.02 42.1107 71.502C41.9207 69.944 40.9707 69.165 39.5837 69.165C38.2157 69.165 37.1517 69.963 36.6387 71.407V69.165L33.9407 69.83V70.096L34.2067 70.115C34.8527 70.172 35.1187 70.476 35.1187 71.084V76.727C35.1187 77.335 34.7957 77.62 33.9787 77.734V78H37.7787V77.734C36.9617 77.62 36.6387 77.335 36.6387 76.727V72.908C36.6387 70.989 37.8167 70.21 38.8997 70.21C39.8877 70.21 40.6097 70.78 40.6097 72.186V76.727C40.6097 77.335 40.2867 77.62 39.4697 77.734V78H43.2887V77.734C42.4527 77.62 42.1487 77.335 42.1487 76.727V72.908C42.1487 70.989 43.3077 70.21 44.4097 70.21C45.3787 70.21 46.1007 70.78 46.1007 72.186V76.727C46.1007 77.335 45.7967 77.62 44.9607 77.734V78H48.7797V77.734C47.9627 77.62 47.6397 77.335 47.6397 76.727ZM54.0663 69.127C52.7173 69.127 51.7103 69.925 51.3303 71.331V69.165L48.6323 69.83V70.096L48.8983 70.115C49.5443 70.172 49.8103 70.476 49.8103 71.084V80.47C49.8103 81.078 49.4873 81.363 48.6703 81.477V81.743H52.9833V81.477C51.8243 81.401 51.3303 81.116 51.3303 80.47V77.335C51.9573 78.019 52.8503 78.266 53.6293 78.266C55.7383 78.266 57.6383 76.727 57.6383 73.63C57.6383 70.913 56.2133 69.127 54.0663 69.127ZM51.3303 75.036V72.946C51.3493 70.951 52.3943 70.153 53.5913 70.153C54.9783 70.153 55.9663 71.578 55.9663 73.934C55.9663 76.081 55.2253 77.791 53.5533 77.791C52.1663 77.791 51.3303 76.594 51.3303 75.036ZM60.6989 78.285C62.0099 78.285 62.9789 77.582 63.4539 76.024V78.304L66.1139 77.639V77.373L65.8479 77.354C65.2019 77.297 64.9549 77.012 64.9549 76.404V72.148C64.9549 70.343 63.7199 69.165 61.7059 69.165C59.5589 69.165 58.2289 70.533 58.1909 72.262H59.9199C59.8439 72.015 59.8059 71.749 59.8059 71.521C59.8059 70.476 60.4709 69.64 61.5919 69.64C62.6749 69.64 63.4159 70.4 63.4159 71.521C63.4159 74.048 58.1909 72.547 58.1909 76.005C58.1909 77.354 59.2169 78.285 60.6989 78.285ZM59.8249 75.777C59.8249 73.307 62.7319 74.01 63.4159 72.642V74.922C63.4159 76.48 62.3519 77.373 61.3639 77.373C60.4709 77.373 59.8249 76.689 59.8249 75.777ZM74.2186 76.727V72.053C74.2186 70.153 73.1926 69.165 71.6536 69.165C70.2856 69.165 69.2216 69.963 68.7086 71.407V69.165L66.0106 69.83V70.096L66.2766 70.115C66.9226 70.172 67.1886 70.476 67.1886 71.084V76.727C67.1886 77.335 66.8656 77.62 66.0486 77.734V78H69.8486V77.734C69.0316 77.62 68.7086 77.335 68.7086 76.727V72.908C68.7086 70.989 69.8866 70.21 70.9696 70.21C71.9576 70.21 72.6796 70.78 72.6796 72.186V76.727C72.6796 77.335 72.3566 77.62 71.5396 77.734V78H75.3586V77.734C74.5226 77.62 74.2186 77.335 74.2186 76.727ZM78.0565 76.727V69.165L75.3585 69.83V70.096L75.6245 70.115C76.2705 70.172 76.5365 70.476 76.5365 71.084V76.727C76.5365 77.335 76.2135 77.62 75.3965 77.734V78H79.1965V77.734C78.3795 77.62 78.0565 77.335 78.0565 76.727ZM76.0995 65.821C76.0995 66.467 76.6125 66.961 77.2965 66.961C77.9615 66.961 78.4555 66.467 78.4555 65.821C78.4555 65.175 77.9615 64.681 77.2965 64.681C76.6125 64.681 76.0995 65.175 76.0995 65.821ZM81.0156 73.079V72.908H86.9436C86.9626 72.699 86.9816 72.49 86.9816 72.3C86.9816 70.324 85.6896 69.165 83.6946 69.165C81.2056 69.165 79.4196 70.913 79.4196 73.839C79.4196 76.442 81.0346 78.266 83.4096 78.266C85.2906 78.266 86.6206 77.164 86.9816 75.378L86.7536 75.321C86.3736 76.271 85.4616 77.145 84.1506 77.145C82.1366 77.145 80.9586 75.549 81.0156 73.079ZM81.0536 72.433C81.2626 70.78 82.1366 69.64 83.4286 69.64C84.5686 69.64 85.3856 70.476 85.3856 71.92C85.3856 72.091 85.3666 72.262 85.3476 72.433H81.0536ZM88.1535 75.15H87.8875L87.7545 77.354C88.2865 77.829 89.4075 78.266 90.8705 78.266C92.7325 78.266 93.9865 77.24 93.9865 75.663C93.9865 72.11 88.9895 73.44 88.9895 71.084C88.9895 70.229 89.6735 69.64 90.6805 69.64C91.8775 69.64 92.7515 70.495 93.0175 71.901H93.2835L93.3975 69.754C92.7895 69.393 91.9345 69.165 90.7755 69.165C88.9705 69.165 87.7925 70.115 87.7925 71.578C87.7925 75.074 92.7895 73.649 92.7895 76.176C92.7895 77.145 92.0295 77.791 90.9085 77.791C89.6735 77.791 88.6095 76.86 88.1535 75.15Z" fill="#FF5C00"/>
<path d="M78.5938 51.1562V48.5312H85.4062V41.6719H88.0781V48.5312H94.8906V51.1562H88.0781V58H85.4062V51.1562H78.5938Z" fill="#FF5C00"/>
</svg>
