<svg width="112" height="112" viewBox="0 0 112 112" fill="none" xmlns="http://www.w3.org/2000/svg">
<circle cx="56" cy="56" r="56" fill="#F9F2EB"/>
<path d="M20.6441 41.51V45.222C16.9901 45.396 14.7571 47.397 14.7571 50.442C14.7571 54.096 17.7731 55.198 20.6441 56.242V64.565C18.4111 64.304 17.0481 62.767 17.0481 60.737C17.0481 60.418 17.0771 60.07 17.1641 59.722H14.4381C14.4961 62.912 16.9031 65.145 20.6441 65.377V69.321H21.4271V65.406C25.4581 65.348 28.1551 63.231 28.1551 59.78C28.1551 55.72 24.5301 54.647 21.4271 53.458V46.063C23.5441 46.208 24.8201 47.571 24.8201 49.456C24.8201 49.775 24.7911 50.152 24.7041 50.5H27.4301C27.4011 47.484 25.0811 45.338 21.4271 45.222V41.51H20.6441ZM17.0191 49.369C17.0191 47.513 18.4111 46.179 20.6441 46.034V53.168C18.6431 52.356 17.0191 51.399 17.0191 49.369ZM21.4271 64.594V56.532C23.7181 57.402 25.6901 58.388 25.6901 60.882C25.6901 63.028 24.0661 64.536 21.4271 64.594ZM30.0995 54.821L30.4185 55.111C31.4045 54.937 32.3325 54.85 33.1735 54.85C37.4365 54.85 39.6695 56.967 39.6695 60.041C39.6695 62.854 38.0745 64.594 35.6675 64.594C33.4055 64.594 31.9555 63.202 31.9555 60.853C31.9555 60.447 31.9845 60.07 32.0715 59.635H29.3745C29.1135 63.405 31.8395 65.406 35.6675 65.406C39.6985 65.406 42.5115 63.057 42.5115 59.432C42.5115 55.256 39.2925 53.023 35.1165 53.023C33.8695 53.023 32.5355 53.226 31.1725 53.632L32.3325 48.122H41.8735V45.628H32.0135L30.0995 54.821ZM50.7513 65.435C55.1883 65.435 58.2623 61.317 58.2623 55.314C58.2623 49.311 55.1883 45.193 50.7513 45.193C46.2853 45.193 43.2403 49.311 43.2403 55.314C43.2403 61.317 46.2853 65.435 50.7513 65.435ZM46.0533 55.314C46.0533 49.34 47.7643 45.976 50.7513 45.976C53.7383 45.976 55.4203 49.34 55.4203 55.314C55.4203 61.288 53.7383 64.652 50.7513 64.652C47.7643 64.652 46.0533 61.288 46.0533 55.314ZM66.8746 65.435C71.3116 65.435 74.3856 61.317 74.3856 55.314C74.3856 49.311 71.3116 45.193 66.8746 45.193C62.4086 45.193 59.3636 49.311 59.3636 55.314C59.3636 61.317 62.4086 65.435 66.8746 65.435ZM62.1766 55.314C62.1766 49.34 63.8876 45.976 66.8746 45.976C69.8616 45.976 71.5436 49.34 71.5436 55.314C71.5436 61.288 69.8616 64.652 66.8746 64.652C63.8876 64.652 62.1766 61.288 62.1766 55.314ZM99.731 46.034V45.628H95.033L87.435 61.839L79.982 45.628H75.081V46.034C76.879 46.121 77.691 46.672 77.691 48.383V62.622C77.691 64.014 76.908 64.42 75.11 64.594V65H81.084V64.594C79.315 64.42 78.503 64.072 78.503 62.622V48.673L86.246 65.435H86.652L94.511 48.673V62.622C94.511 63.956 93.757 64.42 91.901 64.594V65H99.731V64.594C97.846 64.391 97.121 63.985 97.121 62.622V48.383C97.121 46.672 97.933 46.092 99.731 46.034Z" fill="#FF5C00"/>
</svg>
