<svg width="112" height="112" viewBox="0 0 112 112" fill="none" xmlns="http://www.w3.org/2000/svg">
<circle cx="56" cy="56" r="56" fill="#F9F2EB"/>
<path d="M37.8619 60.398C41.3449 60.226 42.5059 59.753 42.5919 57.173V36.576H37.9049V35.974C41.4739 35.071 43.8819 33.996 45.9029 31.631H46.4619V57.173C46.4619 59.753 47.7519 60.226 50.3319 60.398V61H37.8619V60.398ZM62.4001 61.645C55.7781 61.645 51.2631 55.539 51.2631 46.638C51.2631 37.737 55.7781 31.631 62.4001 31.631C68.9791 31.631 73.5371 37.737 73.5371 46.638C73.5371 55.539 68.9791 61.645 62.4001 61.645ZM55.4341 46.638C55.4341 55.496 57.9711 60.484 62.4001 60.484C66.8291 60.484 69.3231 55.496 69.3231 46.638C69.3231 37.78 66.8291 32.792 62.4001 32.792C57.9711 32.792 55.4341 37.78 55.4341 46.638Z" fill="#FF5C00"/>
<path d="M37.1273 70.65V71.225H34.2293V79.459C34.2293 80.241 34.8273 80.586 36.2303 80.678V81H31.0093V80.678C31.9983 80.54 32.3893 80.195 32.3893 79.459V71.225H30.6413V70.65H32.3893V69.27C32.3893 66.556 34.0913 65.291 36.3453 65.291C36.9893 65.291 37.8403 65.406 38.3693 65.728L38.0703 68.12H37.7943C37.6103 66.671 36.9663 65.866 35.9543 65.866C34.8273 65.866 34.2293 67.085 34.2293 68.695V70.65H37.1273ZM48.1125 80.218L48.4345 80.241V80.563L45.2375 81.368V78.447C44.6625 80.241 43.3515 81.322 41.6035 81.322C39.7405 81.322 38.5215 80.126 38.5215 77.826V72.628C38.5215 71.892 38.1995 71.524 37.4405 71.455L37.1185 71.432V71.11L40.3845 70.305V77.665C40.3845 79.367 41.2585 80.057 42.4315 80.057C43.7655 80.057 45.1685 79.114 45.1685 76.791V72.628C45.1685 71.892 44.8695 71.524 44.0875 71.455L43.7655 71.432V71.11L47.0315 70.305V79.068C47.0315 79.804 47.3305 80.149 48.1125 80.218ZM59.1802 79.459C59.1802 80.195 59.5482 80.54 60.5602 80.678V81H55.9372V80.678C56.9262 80.54 57.3172 80.195 57.3172 79.459V73.962C57.3172 72.26 56.4432 71.57 55.2472 71.57C53.9362 71.57 52.5102 72.513 52.5102 74.836V79.459C52.5102 80.195 52.9012 80.54 53.8902 80.678V81H49.2902V80.678C50.2792 80.54 50.6702 80.195 50.6702 79.459V72.628C50.6702 71.892 50.3482 71.524 49.5662 71.455L49.2442 71.432V71.11L52.5102 70.305V73.019C53.1312 71.271 54.4192 70.305 56.0752 70.305C57.9382 70.305 59.1802 71.501 59.1802 73.801V79.459ZM65.689 81.345C63.09 81.345 61.365 79.183 61.365 75.917C61.365 72.168 63.665 70.305 66.218 70.305C67.161 70.305 68.242 70.581 69.001 71.409V67.292C69.001 66.556 68.679 66.211 67.92 66.142L67.598 66.119V65.797L70.864 64.969V79.045C70.864 79.781 71.163 80.126 71.945 80.195L72.267 80.218V80.54L69.047 81.368V78.493C68.633 80.333 67.368 81.345 65.689 81.345ZM63.389 75.526C63.389 78.378 64.585 80.126 66.287 80.126C67.713 80.126 68.978 79.137 69.001 76.722V74.192C69.001 72.329 67.989 70.88 66.31 70.88C64.309 70.88 63.389 72.927 63.389 75.526ZM73.8844 77.55C74.4364 79.62 75.7244 80.747 77.2194 80.747C78.5764 80.747 79.4964 79.965 79.4964 78.792C79.4964 75.733 73.4474 77.458 73.4474 73.226C73.4474 71.455 74.8734 70.305 77.0584 70.305C78.4614 70.305 79.4964 70.581 80.2324 71.018L80.0944 73.617H79.7724C79.4504 71.915 78.3924 70.88 76.9434 70.88C75.7244 70.88 74.8964 71.593 74.8964 72.628C74.8964 75.48 80.9454 73.87 80.9454 78.171C80.9454 80.08 79.4274 81.322 77.1734 81.322C75.4024 81.322 74.0454 80.793 73.4014 80.218L73.5624 77.55H73.8844Z" fill="#FF5C00"/>
</svg>
