<svg width="112" height="112" viewBox="0 0 112 112" fill="none" xmlns="http://www.w3.org/2000/svg">
<circle cx="56" cy="56" r="56" fill="#F9F2EB"/>
<path d="M33.8619 60.398V61H46.3319V60.398C43.7519 60.226 42.4619 59.753 42.4619 57.173V31.631H41.9029C39.8819 33.996 37.4739 35.071 33.9049 35.974V36.576H38.5919V57.173C38.5059 59.753 37.3449 60.226 33.8619 60.398ZM58.4001 61.645C64.9791 61.645 69.5371 55.539 69.5371 46.638C69.5371 37.737 64.9791 31.631 58.4001 31.631C51.7781 31.631 47.2631 37.737 47.2631 46.638C47.2631 55.539 51.7781 61.645 58.4001 61.645ZM51.4341 46.638C51.4341 37.78 53.9711 32.792 58.4001 32.792C62.8291 32.792 65.3231 37.78 65.3231 46.638C65.3231 55.496 62.8291 60.484 58.4001 60.484C53.9711 60.484 51.4341 55.496 51.4341 46.638Z" fill="#FF5C00"/>
<path d="M34.1273 70.65H31.2293V68.695C31.2293 67.085 31.8273 65.866 32.9543 65.866C33.9663 65.866 34.6103 66.671 34.7943 68.12H35.0703L35.3693 65.728C34.8403 65.406 33.9893 65.291 33.3453 65.291C31.0913 65.291 29.3893 66.556 29.3893 69.27V70.65H27.6413V71.225H29.3893V79.459C29.3893 80.195 28.9983 80.54 28.0093 80.678V81H33.2303V80.678C31.8273 80.586 31.2293 80.241 31.2293 79.459V71.225H34.1273V70.65ZM45.1125 80.218C44.3305 80.149 44.0315 79.804 44.0315 79.068V70.305L40.7655 71.11V71.432L41.0875 71.455C41.8695 71.524 42.1685 71.892 42.1685 72.628V76.791C42.1685 79.114 40.7655 80.057 39.4315 80.057C38.2585 80.057 37.3845 79.367 37.3845 77.665V70.305L34.1185 71.11V71.432L34.4405 71.455C35.1995 71.524 35.5215 71.892 35.5215 72.628V77.826C35.5215 80.126 36.7405 81.322 38.6035 81.322C40.3515 81.322 41.6625 80.241 42.2375 78.447V81.368L45.4345 80.563V80.241L45.1125 80.218ZM56.1802 79.459V73.801C56.1802 71.501 54.9382 70.305 53.0752 70.305C51.4192 70.305 50.1312 71.271 49.5102 73.019V70.305L46.2442 71.11V71.432L46.5662 71.455C47.3482 71.524 47.6702 71.892 47.6702 72.628V79.459C47.6702 80.195 47.2792 80.54 46.2902 80.678V81H50.8902V80.678C49.9012 80.54 49.5102 80.195 49.5102 79.459V74.836C49.5102 72.513 50.9362 71.57 52.2472 71.57C53.4432 71.57 54.3172 72.26 54.3172 73.962V79.459C54.3172 80.195 53.9262 80.54 52.9372 80.678V81H57.5602V80.678C56.5482 80.54 56.1802 80.195 56.1802 79.459ZM62.689 81.345C64.368 81.345 65.633 80.333 66.047 78.493V81.368L69.267 80.54V80.218L68.945 80.195C68.163 80.126 67.864 79.781 67.864 79.045V64.969L64.598 65.797V66.119L64.92 66.142C65.679 66.211 66.001 66.556 66.001 67.292V71.409C65.242 70.581 64.161 70.305 63.218 70.305C60.665 70.305 58.365 72.168 58.365 75.917C58.365 79.183 60.09 81.345 62.689 81.345ZM60.389 75.526C60.389 72.927 61.309 70.88 63.31 70.88C64.989 70.88 66.001 72.329 66.001 74.192V76.722C65.978 79.137 64.713 80.126 63.287 80.126C61.585 80.126 60.389 78.378 60.389 75.526ZM70.8844 77.55H70.5624L70.4014 80.218C71.0454 80.793 72.4024 81.322 74.1734 81.322C76.4274 81.322 77.9454 80.08 77.9454 78.171C77.9454 73.87 71.8964 75.48 71.8964 72.628C71.8964 71.593 72.7244 70.88 73.9434 70.88C75.3924 70.88 76.4504 71.915 76.7724 73.617H77.0944L77.2324 71.018C76.4964 70.581 75.4614 70.305 74.0584 70.305C71.8734 70.305 70.4474 71.455 70.4474 73.226C70.4474 77.458 76.4964 75.733 76.4964 78.792C76.4964 79.965 75.5764 80.747 74.2194 80.747C72.7244 80.747 71.4364 79.62 70.8844 77.55Z" fill="#FF5C00"/>
</svg>
