<svg width="112" height="112" viewBox="0 0 112 112" fill="none" xmlns="http://www.w3.org/2000/svg">
<circle cx="56" cy="56" r="56" fill="#F9F2EB"/>
<path d="M33.8619 60.398V61H46.3319V60.398C43.7519 60.226 42.4619 59.753 42.4619 57.173V31.631H41.9029C39.8819 33.996 37.4739 35.071 33.9049 35.974V36.576H38.5919V57.173C38.5059 59.753 37.3449 60.226 33.8619 60.398ZM58.4001 61.645C64.9791 61.645 69.5371 55.539 69.5371 46.638C69.5371 37.737 64.9791 31.631 58.4001 31.631C51.7781 31.631 47.2631 37.737 47.2631 46.638C47.2631 55.539 51.7781 61.645 58.4001 61.645ZM51.4341 46.638C51.4341 37.78 53.9711 32.792 58.4001 32.792C62.8291 32.792 65.3231 37.78 65.3231 46.638C65.3231 55.496 62.8291 60.484 58.4001 60.484C53.9711 60.484 51.4341 55.496 51.4341 46.638Z" fill="#FF5C00"/>
<path d="M75.0879 49.584V47.123H81.4746V40.6924H83.9795V47.123H90.3662V49.584H83.9795V56H81.4746V49.584H75.0879Z" fill="#FF5C00"/>
<path d="M29.0787 82.438L28.3657 84.462C28.9177 84.738 29.4237 84.876 29.8607 84.876C31.7237 84.876 32.8507 83.749 34.0697 80.897L37.8647 71.835C38.4397 70.524 38.9457 70.041 39.6127 69.949V69.65H36.1397V69.949C37.0597 70.018 37.4967 70.248 37.4967 70.823C37.4967 71.076 37.4277 71.375 37.2437 71.766L34.8287 77.562L32.2757 71.283C32.1837 71.076 32.1607 70.915 32.1607 70.754C32.1607 70.271 32.5747 69.995 33.4487 69.949V69.65H28.8257V69.949C29.4007 69.995 29.9067 70.524 30.3437 71.536L33.8397 79.931L33.4947 80.782C32.8047 82.461 32.0687 83.22 31.0797 83.22C30.5047 83.22 29.7687 83.036 29.0787 82.438ZM41.3268 74.043V73.836H48.5028C48.5258 73.583 48.5488 73.33 48.5488 73.1C48.5488 70.708 46.9848 69.305 44.5698 69.305C41.5568 69.305 39.3948 71.421 39.3948 74.963C39.3948 78.114 41.3498 80.322 44.2248 80.322C46.5018 80.322 48.1118 78.988 48.5488 76.826L48.2728 76.757C47.8128 77.907 46.7088 78.965 45.1218 78.965C42.6838 78.965 41.2578 77.033 41.3268 74.043ZM41.3728 73.261C41.6258 71.26 42.6838 69.88 44.2478 69.88C45.6278 69.88 46.6168 70.892 46.6168 72.64C46.6168 72.847 46.5938 73.054 46.5708 73.261H41.3728ZM53.0954 80.345C54.6824 80.345 55.8554 79.494 56.4304 77.608V80.368L59.6504 79.563V79.241L59.3284 79.218C58.5464 79.149 58.2474 78.804 58.2474 78.068V72.916C58.2474 70.731 56.7524 69.305 54.3144 69.305C51.7154 69.305 50.1054 70.961 50.0594 73.054H52.1524C52.0604 72.755 52.0144 72.433 52.0144 72.157C52.0144 70.892 52.8194 69.88 54.1764 69.88C55.4874 69.88 56.3844 70.8 56.3844 72.157C56.3844 75.216 50.0594 73.399 50.0594 77.585C50.0594 79.218 51.3014 80.345 53.0954 80.345ZM52.0374 77.309C52.0374 74.319 55.5564 75.17 56.3844 73.514V76.274C56.3844 78.16 55.0964 79.241 53.9004 79.241C52.8194 79.241 52.0374 78.413 52.0374 77.309ZM63.4814 72.433V69.305L60.2154 70.11V70.432L60.5374 70.455C61.3194 70.524 61.6414 70.892 61.6414 71.628V78.459C61.6414 79.195 61.2504 79.54 60.2614 79.678V80H65.4824V79.678C64.0794 79.586 63.4814 79.241 63.4814 78.459V74.434C63.5044 72.042 64.7234 70.961 65.9654 70.961C66.4024 70.961 66.8394 71.099 67.2304 71.352L67.4144 69.558C67.0924 69.397 66.7474 69.305 66.4254 69.305C65.1834 69.305 63.9874 70.501 63.4814 72.433ZM68.964 76.55H68.642L68.481 79.218C69.125 79.793 70.482 80.322 72.253 80.322C74.507 80.322 76.025 79.08 76.025 77.171C76.025 72.87 69.976 74.48 69.976 71.628C69.976 70.593 70.804 69.88 72.023 69.88C73.472 69.88 74.53 70.915 74.852 72.617H75.174L75.312 70.018C74.576 69.581 73.541 69.305 72.138 69.305C69.953 69.305 68.527 70.455 68.527 72.226C68.527 76.458 74.576 74.733 74.576 77.792C74.576 78.965 73.656 79.747 72.299 79.747C70.804 79.747 69.516 78.62 68.964 76.55Z" fill="#FF5C00"/>
</svg>
